<svg width="26" height="25" viewBox="0 0 26 25" fill="none" xmlns="http://www.w3.org/2000/svg">
<path d="M23.8653 22.7266H1.13733C0.835864 22.7266 0.546742 22.8464 0.333572 23.0595C0.120401 23.2727 0.000643051 23.5618 0.000643051 23.8633C0.000643051 24.1648 0.120401 24.4539 0.333572 24.6671C0.546742 24.8802 0.835864 25 1.13733 25H23.8647C24.1662 25.0001 24.4554 24.8804 24.6686 24.6673C24.8818 24.4541 25.0016 24.165 25.0017 23.8636C25.0018 23.5621 24.8821 23.273 24.669 23.0597C24.4558 22.8465 24.1667 22.7267 23.8653 22.7266ZM2.55766 19.7715C2.25612 19.7715 1.96693 19.8913 1.75371 20.1046C1.54049 20.3178 1.42071 20.607 1.42071 20.9085C1.42071 21.21 1.54049 21.4992 1.75371 21.7124C1.96693 21.9257 2.25612 22.0455 2.55766 22.0455H22.4444C22.746 22.0455 23.0351 21.9257 23.2484 21.7124C23.4616 21.4992 23.5814 21.21 23.5814 20.9085C23.5814 20.607 23.4616 20.3178 23.2484 20.1046C23.0351 19.8913 22.746 19.7715 22.4444 19.7715H22.1608V9.54346H22.4444C22.595 9.54346 22.7394 9.48364 22.8459 9.37715C22.9524 9.27067 23.0122 9.12624 23.0122 8.97565C23.0122 8.82506 22.9524 8.68063 22.8459 8.57415C22.7394 8.46766 22.595 8.40784 22.4444 8.40784H2.55766C2.40707 8.40784 2.26264 8.46766 2.15616 8.57415C2.04967 8.68063 1.98985 8.82506 1.98985 8.97565C1.98985 9.12624 2.04967 9.27067 2.15616 9.37715C2.26264 9.48364 2.40707 9.54346 2.55766 9.54346H2.84184V19.771L2.55766 19.7715ZM19.8874 9.54346V19.771H16.4784V9.54346H19.8874ZM14.205 9.54346V19.771H10.796V9.54346H14.205ZM5.11415 9.54346H8.52316V19.771H5.11415V9.54346ZM1.13733 7.38609H23.8759C24.1456 7.38706 24.4068 7.2921 24.6128 7.11819C24.8189 6.94427 24.9564 6.70274 25.0007 6.43677C25.045 6.1708 24.9933 5.89773 24.8548 5.66638C24.7163 5.43502 24.5001 5.26047 24.2447 5.17391L12.9683 0.0997841C12.8217 0.0340064 12.6628 0 12.5021 0C12.3414 0 12.1825 0.0340064 12.0359 0.0997841L0.671162 5.21329C0.433813 5.31976 0.240186 5.50445 0.122631 5.7365C0.0050754 5.96856 -0.0292882 6.23393 0.0252812 6.48827C0.0798505 6.74262 0.220048 6.97054 0.42245 7.13395C0.624852 7.29736 0.877199 7.38636 1.13733 7.38609Z" fill="#FFFDFD"/>
</svg>
