<svg width="25" height="25" viewBox="0 0 25 25" fill="none" xmlns="http://www.w3.org/2000/svg">
<path d="M13.981 12.8708L11.204 12.8714V16.3584H13.981C14.9423 16.3584 15.7245 15.5761 15.7245 14.6146C15.7245 14.1515 15.5425 13.7143 15.2118 13.3836C14.8811 13.0529 14.444 12.8708 13.981 12.8708ZM14.9726 10.0241C14.9727 9.6571 14.8282 9.31062 14.566 9.04836C14.3037 8.78611 13.9573 8.64167 13.5904 8.64172H11.204V11.406H13.6129C14.3646 11.3938 14.9726 10.7788 14.9726 10.0241Z" fill="#FFFDFD"/>
<path d="M12.5 4.10156C7.86909 4.10156 4.10156 7.86909 4.10156 12.5C4.10156 17.1309 7.86909 20.8984 12.5 20.8984C17.1309 20.8984 20.8984 17.1309 20.8984 12.5C20.8984 7.86909 17.1309 4.10156 12.5 4.10156ZM13.9811 17.8232H13.2324V19.2383H11.7676V17.8232H8.54302V16.3584H9.73921V8.64165H8.54302V7.17681H11.7676V5.76172H13.2324V7.17681H13.5903C14.3485 7.17676 15.0629 7.47353 15.6019 8.0125C16.1408 8.55146 16.4375 9.26587 16.4375 10.0241C16.4375 10.7503 16.1638 11.4136 15.7146 11.9171C15.907 12.0415 16.0856 12.1859 16.2477 12.3478C16.855 12.9552 17.1895 13.7603 17.1894 14.6146C17.1894 16.3838 15.7501 17.8232 13.9811 17.8232Z" fill="#FFFDFD"/>
<path d="M21.3389 3.66113C18.9779 1.30024 15.8389 0 12.5 0C9.16113 0 6.02212 1.30024 3.66113 3.66113C1.30024 6.02212 0 9.16113 0 12.5C0 15.8389 1.30024 18.9779 3.66113 21.3389C6.02212 23.6998 9.16113 25 12.5 25C15.8389 25 18.9779 23.6998 21.3389 21.3389C23.6998 18.9779 25 15.8389 25 12.5C25 9.16113 23.6998 6.02212 21.3389 3.66113ZM12.5 22.3633C7.06138 22.3633 2.63672 17.9386 2.63672 12.5C2.63672 7.06138 7.06138 2.63672 12.5 2.63672C17.9386 2.63672 22.3633 7.06138 22.3633 12.5C22.3633 17.9386 17.9386 22.3633 12.5 22.3633Z" fill="#FFFDFD"/>
</svg>
