<svg width="25" height="25" viewBox="0 0 25 25" fill="none" xmlns="http://www.w3.org/2000/svg">
<path d="M12.4995 4.60291C8.14504 4.60291 4.60242 8.14553 4.60242 12.5C4.99944 22.9623 20.0013 22.9594 20.3967 12.4999C20.3967 8.14553 16.854 4.60291 12.4995 4.60291ZM17.0315 12.9063L13.109 18.7901C12.8191 19.225 12.1801 19.225 11.8902 18.7901L7.96765 12.9063C7.88744 12.786 7.84464 12.6446 7.84464 12.5C7.84464 12.3555 7.88744 12.2141 7.96765 12.0938L11.8902 6.20999C12.1801 5.77512 12.8191 5.77512 13.109 6.20999L17.0315 12.0938C17.1117 12.2141 17.1545 12.3555 17.1545 12.5C17.1545 12.6446 17.1117 12.786 17.0315 12.9063Z" fill="#FFFDFD"/>
<path d="M9.79376 11.9961L12.5002 12.5374L15.2067 11.9961L12.5002 7.9364L9.79376 11.9961Z" fill="#FFFDFD"/>
<path d="M12.5 0C5.60747 0 0 5.60747 0 12.5C0.628418 29.0602 24.3741 29.0557 25 12.4999C25 5.60747 19.3925 0 12.5 0ZM12.5 21.862C7.33779 21.862 3.13804 17.6622 3.13804 12.5C3.60869 0.0971191 21.3932 0.100489 21.862 12.5001C21.862 17.6622 17.6622 21.862 12.5 21.862Z" fill="#FFFDFD"/>
<path d="M12.3563 14.0026L10.1677 13.5649L12.5 17.0633L14.8323 13.5649L12.6437 14.0026C12.5488 14.0216 12.4512 14.0216 12.3563 14.0026Z" fill="#FFFDFD"/>
</svg>
