<svg width="19" height="21" viewBox="0 0 19 21" fill="none" xmlns="http://www.w3.org/2000/svg">
<path fill-rule="evenodd" clip-rule="evenodd" d="M5.36316 11.0677C5.36316 10.9064 5.42851 10.7517 5.54483 10.6377C5.66115 10.5237 5.81892 10.4596 5.98343 10.4596H10.9456C11.1101 10.4596 11.2678 10.5237 11.3842 10.6377C11.5005 10.7517 11.5658 10.9064 11.5658 11.0677C11.5658 11.229 11.5005 11.3837 11.3842 11.4977C11.2678 11.6117 11.1101 11.6758 10.9456 11.6758H5.98343C5.81892 11.6758 5.66115 11.6117 5.54483 11.4977C5.42851 11.3837 5.36316 11.229 5.36316 11.0677ZM15.8415 12.4461C15.5446 12.4461 15.2833 12.5596 15.0956 12.7485L15.084 12.7599C14.864 12.9707 14.7408 13.2707 14.7722 13.5885V13.5958C14.8169 14.1107 15.3213 14.5542 15.9408 14.5542H17.5477C17.6061 14.5523 17.6615 14.5286 17.7026 14.4879C17.7437 14.4472 17.7673 14.3925 17.7685 14.3353V12.665C17.7673 12.6077 17.7437 12.5531 17.7026 12.5124C17.6615 12.4717 17.6061 12.4479 17.5477 12.4461H15.8415ZM14.2123 11.8947C14.4248 11.6828 14.6784 11.5148 14.9583 11.4006C15.2381 11.2864 15.5384 11.2284 15.8415 11.2299H17.5841C17.9651 11.2412 18.3266 11.3972 18.5925 11.665C18.8584 11.9328 19.0077 12.2913 19.009 12.665V14.3353C19.0076 14.7127 18.8551 15.0744 18.5845 15.3428C18.3139 15.6111 17.9466 15.7647 17.5617 15.7704H15.9408C14.7747 15.7704 13.6441 14.9353 13.5366 13.7004C13.5051 13.3692 13.5493 13.0352 13.666 12.7228C13.7828 12.4105 13.9691 12.1276 14.2115 11.8947H14.2123Z" fill="black"/>
<path fill-rule="evenodd" clip-rule="evenodd" d="M5.98353 7.21622C5.78173 7.21622 5.58984 7.23 5.40789 7.25757L5.39135 7.26C4.47495 7.37351 3.75539 7.75703 3.26245 8.32459C2.76786 8.89216 2.46846 9.68351 2.46846 10.6622V16.3378C2.46846 17.4162 2.83237 18.2676 3.42373 18.8473C4.01509 19.427 4.88352 19.7838 5.98353 19.7838H13.4272C14.5272 19.7838 15.3957 19.427 15.987 18.8473C16.5784 18.2676 16.9423 17.4162 16.9423 16.3378V15.7703H15.9415C14.7754 15.7703 13.6439 14.9351 13.5372 13.7003C13.5056 13.369 13.5498 13.0351 13.6666 12.7227C13.7833 12.4103 13.9697 12.1274 14.2121 11.8946C14.4247 11.6826 14.6785 11.5145 14.9585 11.4003C15.2385 11.2861 15.539 11.2281 15.8423 11.2297H16.9423V10.6622C16.9423 9.67703 16.6379 8.88081 16.1359 8.31081C15.6347 7.74162 14.9036 7.35811 13.9756 7.2527C13.7942 7.22507 13.6107 7.21286 13.4272 7.21622H5.98353ZM5.22758 6.05432C5.47323 6.01784 5.72548 6 5.98353 6H13.4272C13.6505 6 13.8904 6.00811 14.1344 6.04622C15.3336 6.18649 16.3551 6.69811 17.0746 7.51622C17.7967 8.33676 18.1829 9.42568 18.1829 10.6622V11.8378C18.1829 11.9991 18.1176 12.1538 18.0012 12.2678C17.8849 12.3819 17.7271 12.4459 17.5626 12.4459H15.8423C15.5445 12.4459 15.284 12.5595 15.0954 12.7484L15.0847 12.7597C14.8647 12.9705 14.7414 13.2705 14.7729 13.5884V13.5957C14.8167 14.1105 15.3221 14.5541 15.9415 14.5541H17.5626C17.7271 14.5541 17.8849 14.6181 18.0012 14.7322C18.1176 14.8462 18.1829 15.0009 18.1829 15.1622V16.3378C18.1829 17.6919 17.7197 18.8676 16.8637 19.7068C16.0077 20.5459 14.8084 21 13.4272 21H5.98353C4.60232 21 3.40305 20.5459 2.54703 19.7068C1.69101 18.8676 1.22784 17.6919 1.22784 16.3378V10.6622C1.22784 9.43541 1.60665 8.35297 2.31793 7.53486C3.02922 6.71757 4.03825 6.2027 5.22758 6.05432Z" fill="black"/>
<path d="M11.9008 4.35714C13.5219 4.7 12.2837 4.93451 12.2836 6.32143C9.5161 6.625 7.27563 6.85714 7.27563 6C7.27563 5.14286 7.34148 3.5 7.84808 3.5C8.35468 3.5 9.8744 3.92857 11.9008 4.35714Z" stroke="black"/>
<path d="M1.86544 2.25C-0.174554 2.75 1.86544 5.79167 3.14043 7.25C5.69033 6 8.87782 7.25 8.87782 6C8.87782 4.75 7.60282 1 6.96533 1C6.32783 1 4.41542 1.625 1.86544 2.25Z" fill="white" stroke="black"/>
</svg>
