<svg width="20" height="20" viewBox="0 0 20 20" fill="none" xmlns="http://www.w3.org/2000/svg">
<path fill-rule="evenodd" clip-rule="evenodd" d="M7.36829 9.40548C7.36829 9.23345 7.42878 9.06847 7.53645 8.94682C7.64413 8.82518 7.79017 8.75684 7.94245 8.75684H12.5357C12.688 8.75684 12.8341 8.82518 12.9417 8.94682C13.0494 9.06847 13.1099 9.23345 13.1099 9.40548C13.1099 9.57752 13.0494 9.7425 12.9417 9.86415C12.8341 9.98579 12.688 10.0541 12.5357 10.0541H7.94245C7.79017 10.0541 7.64413 9.98579 7.53645 9.86415C7.42878 9.7425 7.36829 9.57752 7.36829 9.40548ZM17.0678 10.8758C16.793 10.8758 16.5511 10.9968 16.3773 11.1983L16.3666 11.2105C16.1629 11.4353 16.0489 11.7553 16.078 12.0943V12.1021C16.1193 12.6513 16.5863 13.1244 17.1597 13.1244H18.6471C18.7012 13.1224 18.7525 13.0971 18.7905 13.0537C18.8286 13.0102 18.8504 12.952 18.8515 12.8909V11.1093C18.8504 11.0482 18.8286 10.9899 18.7905 10.9465C18.7525 10.903 18.7012 10.8777 18.6471 10.8758H17.0678ZM15.5597 10.2876C15.7564 10.0616 15.9912 9.88239 16.2502 9.76058C16.5092 9.63878 16.7872 9.57685 17.0678 9.57846H18.6808C19.0335 9.59057 19.3682 9.75699 19.6143 10.0426C19.8604 10.3282 19.9986 10.7107 19.9999 11.1093V12.8909C19.9985 13.2934 19.8574 13.6793 19.6069 13.9655C19.3564 14.2518 19.0164 14.4156 18.6602 14.4217H17.1597C16.0802 14.4217 15.0337 13.5309 14.9342 12.2137C14.905 11.8604 14.9459 11.5042 15.054 11.171C15.1621 10.8378 15.3346 10.536 15.5589 10.2876H15.5597Z" fill="black"/>
<path fill-rule="evenodd" clip-rule="evenodd" d="M7.94256 5.2973C7.75577 5.2973 7.57816 5.312 7.40974 5.34141L7.39443 5.344C6.5462 5.46508 5.88017 5.87416 5.4239 6.47957C4.9661 7.08497 4.68897 7.92908 4.68897 8.97297V15.027C4.68897 16.1773 5.02582 17.0854 5.57319 17.7038C6.12055 18.3222 6.92438 18.7027 7.94256 18.7027H14.8325C15.8507 18.7027 16.6545 18.3222 17.2019 17.7038C17.7493 17.0854 18.0861 16.1773 18.0861 15.027V14.4216H17.1598C16.0804 14.4216 15.0331 13.5308 14.9343 12.2136C14.9051 11.8603 14.946 11.5041 15.0541 11.1709C15.1621 10.8377 15.3346 10.5359 15.559 10.2876C15.7558 10.0614 15.9907 9.88215 16.2499 9.76034C16.5091 9.63853 16.7872 9.57665 17.0679 9.57838H18.0861V8.97297C18.0861 7.92216 17.8044 7.07286 17.3397 6.46486C16.8758 5.85773 16.199 5.44865 15.3401 5.33622C15.1722 5.30674 15.0024 5.29372 14.8325 5.2973H7.94256ZM7.24285 4.05795C7.47022 4.01903 7.70371 4 7.94256 4H14.8325C15.0392 4 15.2612 4.00865 15.4871 4.0493C16.5971 4.19892 17.5426 4.74465 18.2086 5.6173C18.8769 6.49254 19.2344 7.65405 19.2344 8.97297V10.227C19.2344 10.3991 19.1739 10.564 19.0663 10.6857C18.9586 10.8073 18.8125 10.8757 18.6603 10.8757H17.0679C16.7923 10.8757 16.5512 10.9968 16.3766 11.1983L16.3667 11.2104C16.163 11.4352 16.049 11.7552 16.0781 12.0943V12.1021C16.1186 12.6512 16.5864 13.1243 17.1598 13.1243H18.6603C18.8125 13.1243 18.9586 13.1927 19.0663 13.3143C19.1739 13.436 19.2344 13.6009 19.2344 13.773V15.027C19.2344 16.4714 18.8057 17.7254 18.0134 18.6205C17.221 19.5157 16.111 20 14.8325 20H7.94256C6.66409 20 5.55405 19.5157 4.7617 18.6205C3.96936 17.7254 3.54065 16.4714 3.54065 15.027V8.97297C3.54065 7.66443 3.89127 6.50984 4.54964 5.63719C5.20802 4.76541 6.14199 4.21622 7.24285 4.05795Z" fill="black"/>
<path d="M8.94179 5.33333C8.94179 8.06178 6.99645 10.1667 4.72089 10.1667C2.44534 10.1667 0.5 8.06178 0.5 5.33333C0.5 2.60489 2.44534 0.5 4.72089 0.5C6.99645 0.5 8.94179 2.60489 8.94179 5.33333Z" fill="white" stroke="black"/>
<path d="M4.72092 2.66675L4.72092 8.00008M7.08137 5.33341H2.36047" stroke="black" stroke-linecap="round"/>
</svg>
