<svg width="25" height="25" viewBox="0 0 25 25" fill="none" xmlns="http://www.w3.org/2000/svg">
<path d="M25 12.5C25 18.6209 20.6005 23.7143 14.7908 24.7903C14.0352 24.9302 13.2684 25.0004 12.5 25C11.6398 25 10.8 24.9133 9.98877 24.7475C4.28877 23.5852 0 18.5434 0 12.5C0 9.16787 1.3041 6.13931 3.43008 3.89897C3.5531 3.769 3.67898 3.64175 3.80762 3.51733C6.05713 1.33979 9.12192 0 12.5 0C15.8781 0 18.9429 1.33979 21.1923 3.51733C21.2454 3.56852 21.2979 3.62022 21.35 3.67241C23.6056 5.93315 25 9.0541 25 12.5Z" fill="#FFFDFD"/>
<path d="M14.7909 10.6362V7.85054H21.3501V3.51733H3.4302V7.85049H9.98889V10.6469C4.69094 10.9178 0.722046 12.028 0.722046 13.3566C0.722046 14.6852 4.69094 15.7954 9.98889 16.0664V24.7475C10.8001 24.9133 11.6399 25 12.5001 25C13.2828 25 14.0486 24.9281 14.7909 24.7903V16.077C20.1991 15.826 24.2782 14.7036 24.2782 13.3566C24.2782 12.0097 20.1991 10.8873 14.7909 10.6362ZM12.5001 15.0689C6.5904 15.0689 1.79963 14.1786 1.79963 13.0801C1.79963 12.1424 5.29094 11.3562 9.98894 11.1464V14.3316C10.7841 14.4464 11.5865 14.504 12.39 14.5041C13.1934 14.504 13.9958 14.4464 14.791 14.3316V11.1367C19.5997 11.3321 23.2002 12.1275 23.2002 13.0801C23.2001 14.1786 18.4093 15.0689 12.5001 15.0689Z" fill="#0C0C0C"/>
</svg>
